Coordinates
version=1
nRows=17
nColumns=40
inDegrees=yes

Units are S.I. units (second, meters, Newtons, ...)
Angles are in degrees.

endheader
time	pelvis_tilt	pelvis_list	pelvis_rotation	pelvis_tx	pelvis_ty	pelvis_tz	hip_flexion_r	hip_adduction_r	hip_rotation_r	knee_angle_r	knee_angle_r_beta	ankle_angle_r	subtalar_angle_r	mtp_angle_r	hip_flexion_l	hip_adduction_l	hip_rotation_l	knee_angle_l	knee_angle_l_beta	ankle_angle_l	subtalar_angle_l	mtp_angle_l	lumbar_extension	lumbar_bending	lumbar_rotation	arm_flex_r	arm_add_r	arm_rot_r	elbow_flex_r	pro_sup_r	wrist_flex_r	wrist_dev_r	arm_flex_l	arm_add_l	arm_rot_l	elbow_flex_l	pro_sup_l	wrist_flex_l	wrist_dev_l
     41.80864286	     -4.00164740	     -3.01763815	     -3.26005392	      1.06848934	      0.92983409	      0.40975417	     23.92209301	     -3.35082567	    -13.91556077	     11.24896933	     11.24896933	      2.75702079	      8.77434584	      7.12162801	      5.73940425	     -4.42403165	    -12.62446567	     15.22135573	     15.22135573	     13.75625185	     -8.13708112	     -7.39859512	     -9.23526948	      2.48464501	      1.71060321	     -8.11476084	    -13.06218330	     -9.64614163	     24.87264966	     47.12434507	      0.00000000	      0.00000000	     18.76077820	    -17.39428093	    -13.92927499	     77.74550014	     47.38419814	      0.00000000	      0.00000000
     41.82228571	     -4.15092391	     -2.87830492	     -3.25353803	      1.06978435	      0.92900210	      0.41180150	     23.46418500	     -3.24851670	    -14.22780298	     11.45952285	     11.45952285	      2.56634930	      8.53078449	      7.12691261	      5.40196976	     -4.39163833	    -12.67458128	     15.19920954	     15.19920954	     14.01274619	     -8.18716962	     -7.48930998	     -8.78778297	      2.45010048	      1.64770718	     -8.22813246	    -13.01650037	     -9.64915597	     24.87547303	     47.12273374	      0.00000000	      0.00000000	     18.76384770	    -17.38399554	    -13.93601726	     77.80352531	     47.38603438	      0.00000000	      0.00000000
     41.83592857	     -3.89530420	     -2.77724844	     -3.09150703	      1.07180062	      0.92845957	      0.41403454	     22.73532264	     -3.11139234	    -13.82742629	     12.09489879	     12.09489879	      0.96526733	      6.48503737	      1.73129399	      4.16960121	     -4.40151443	    -13.21349234	     14.37812482	     14.37812482	     14.23445648	     -6.79816798	     -8.25001417	     -8.91242107	      2.39352146	      1.30177425	     -9.38145846	    -12.88422236	     -9.58220340	     27.39043497	     46.94604775	      0.00000000	      0.00000000	     17.89859985	    -17.24071940	    -14.59576907	     79.60195658	     47.49385380	      0.00000000	      0.00000000
     41.84957143	     -3.83116245	     -2.77427338	     -2.90536020	      1.07362835	      0.92785079	      0.41614289	     22.19234203	     -3.00881701	    -13.97694423	     12.83686147	     12.83686147	      1.04239812	      5.93147241	      1.40583944	      3.45066689	     -4.48556515	    -13.06029414	     14.09586277	     14.09586277	     14.54702921	     -6.59540502	     -8.25559916	     -8.67234873	      2.53360187	      1.19885048	     -9.53161180	    -12.77803345	     -9.52875873	     27.35178262	     46.93940766	      0.00000000	      0.00000000	     17.63386530	    -16.97173965	    -14.51285256	     79.47665048	     47.48639217	      0.00000000	      0.00000000
     41.86321429	     -3.65618366	     -2.59424202	     -2.90107729	      1.07561421	      0.92737610	      0.41870412	     21.70578788	     -2.91581850	    -13.04874024	     13.67630462	     13.67630462	      0.46928590	      3.88096571	     -1.04035118	      2.44153385	     -4.38664170	    -13.36935094	     13.57102041	     13.57102041	     15.07279647	     -5.88121232	     -7.58020674	     -8.57892657	      2.39011970	      1.24460267	     -9.60958831	    -12.75495422	     -9.11547591	     27.79062924	     46.86018931	      0.00000000	      0.00000000	     17.45989955	    -16.71330734	    -14.70257269	     79.32887004	     47.51824500	      0.00000000	      0.00000000
     41.87685714	     -3.49552367	     -2.63162029	     -2.81776634	      1.07758047	      0.92693580	      0.42120325	     21.29364934	     -2.77578319	    -12.87668327	     14.67161543	     14.67161543	      0.82487907	      3.26805817	     -1.62183739	      1.63098328	     -4.55092801	    -13.34083459	     13.36469897	     13.36469897	     15.40044774	     -5.64502581	     -7.43475051	     -8.48421269	      2.57768474	      1.24091874	     -9.41684109	    -12.80826118	     -9.07394845	     27.94782679	     46.84773995	      0.00000000	      0.00000000	     17.07844010	    -16.50106292	    -14.67412416	     79.15440321	     47.51436895	      0.00000000	      0.00000000
     41.89050000	     -3.31804831	     -2.62673978	     -2.77035062	      1.07954894	      0.92662427	      0.42387359	     20.97681765	     -2.64149329	    -12.38233667	     15.70902806	     15.70902806	      1.24487257	      2.29098917	     -2.29313521	      0.84713084	     -4.69092011	    -13.37521036	     13.24452543	     13.24452543	     15.76509459	     -5.40313117	     -7.05125022	     -8.42173615	      2.69781725	      1.22121072	     -9.09558573	    -12.82319934	     -9.02463465	     28.21017361	     46.83009291	      0.00000000	      0.00000000	     16.61574058	    -16.26870401	    -14.73680543	     78.87805822	     47.51500754	      0.00000000	      0.00000000
     41.90414286	     -3.16797639	     -2.65229441	     -2.74087887	      1.08139152	      0.92640158	      0.42672558	     20.73033885	     -2.42886579	    -11.71886067	     16.66329327	     16.66329327	      1.66091615	      1.02312626	     -3.03964017	      0.26295167	     -4.91810823	    -13.42428282	     13.45141966	     13.45141966	     16.28274132	     -5.24067338	     -6.24983029	     -8.34268368	      2.83917937	      1.18214622	     -8.60532472	    -12.81478170	     -8.94723780	     28.60551708	     46.80310320	      0.00000000	      0.00000000	     16.03908575	    -15.98385900	    -14.94415656	     78.42753261	     47.52354460	      0.00000000	      0.00000000
     41.91778571	     -3.05881952	     -2.75729267	     -2.72451041	      1.08307879	      0.92630779	      0.42974349	     20.49730317	     -2.11015858	    -11.10002028	     17.43964672	     17.43964672	      2.08509529	     -0.11355893	     -3.76383622	     -0.02478831	     -5.31109696	    -13.40965568	     14.15140723	     14.15140723	     17.05202068	     -5.15750478	     -4.93185409	     -8.23604837	      3.08308237	      1.11306061	     -7.97403601	    -12.85191712	     -8.82546260	     29.08280272	     46.76619671	      0.00000000	      0.00000000	     15.38163318	    -15.60207679	    -15.28401484	     77.75946824	     47.53936324	      0.00000000	      0.00000000
     41.93142857	     -2.92516422	     -2.89477266	     -2.69515242	      1.08464759	      0.92642387	      0.43285942	     20.20842758	     -1.80009841	    -10.76333288	     18.10348047	     18.10348047	      2.65249954	     -0.72092940	     -4.26040884	     -0.16726890	     -5.78919515	    -13.34293470	     15.14401500	     15.14401500	     17.71615469	     -5.24591250	     -3.65653468	     -8.18573278	      3.35830757	      1.11818179	     -7.22615875	    -12.93144718	     -8.69127818	     29.53557740	     46.72980567	      0.00000000	      0.00000000	     14.71529432	    -15.20061119	    -15.52510099	     76.97252075	     47.54632012	      0.00000000	      0.00000000
     41.94507143	     -2.72321222	     -3.02784720	     -2.68388450	      1.08608014	      0.92681405	      0.43612179	     19.82916435	     -1.48486922	    -10.48001803	     18.68367229	     18.68367229	      3.31811240	     -1.17571679	     -4.49373781	     -0.20535355	     -6.31432492	    -13.24650706	     16.48007247	     16.48007247	     18.55959989	     -5.34774350	     -1.79812829	     -8.24711435	      3.59731378	      1.20133530	     -6.39962035	    -13.04085319	     -8.41348270	     30.08364973	     46.66690770	      0.00000000	      0.00000000	     14.15635072	    -14.70132557	    -15.85110593	     75.88731445	     47.56117088	      0.00000000	      0.00000000
     41.95871429	     -2.57548060	     -3.16924848	     -2.63178698	      1.08721430	      0.92719287	      0.43944256	     19.45359945	     -1.19386149	    -10.47057336	     19.12931646	     19.12931646	      3.99161908	     -1.26813561	     -4.73620886	      0.05106669	     -6.89063259	    -12.91354069	     18.12018032	     18.12018032	     18.55791127	     -6.11144765	     -1.71865212	     -8.29345456	      3.82811073	      1.22111951	     -5.38678944	    -13.09549571	     -8.37251155	     30.60937626	     46.64349936	      0.00000000	      0.00000000	     13.40767839	    -14.42966082	    -15.74850285	     74.99722096	     47.53748284	      0.00000000	      0.00000000
     41.97235714	     -2.48686111	     -3.28842323	     -2.54664726	      1.08810187	      0.92757466	      0.44280353	     19.09420494	     -0.91934472	    -10.53138580	     19.46089702	     19.46089702	      4.64687069	     -1.30615057	     -4.86353225	      0.64881212	     -7.49779742	    -12.44059647	     20.21855864	     20.21855864	     18.42500027	     -7.12263594	     -1.67470726	     -8.28020276	      4.03423217	      1.16185749	     -4.30440792	    -13.17800732	     -8.28096239	     31.30063879	     46.60692806	      0.00000000	      0.00000000	     12.75003564	    -14.13077251	    -15.73968640	     73.57857131	     47.51288846	      0.00000000	      0.00000000
     41.98600000	     -2.36044083	     -3.44438364	     -2.39218775	      1.08880306	      0.92804756	      0.44620087	     18.57306533	     -0.61399245	    -10.75089993	     19.57882381	     19.57882381	      5.26333593	     -1.15707704	     -5.01680805	      1.48801257	     -8.21000488	    -11.83034742	     22.77472424	     22.77472424	     18.04834218	     -8.27502737	     -1.96038402	     -8.32789365	      4.25507668	      1.13692223	     -3.14679778	    -13.24212999	     -8.20471240	     32.03000049	     46.57394946	      0.00000000	      0.00000000	     12.11958592	    -13.81453607	    -15.62802616	     72.20374507	     47.48024486	      0.00000000	      0.00000000
     41.99964286	     -2.25852237	     -3.51170094	     -2.21740879	      1.08913728	      0.92854291	      0.44945357	     18.08912034	     -0.43654948	    -11.12918602	     19.68968169	     19.68968169	      5.86745361	     -0.79514635	     -5.02294983	      2.58008327	     -8.79153454	    -10.96353541	     25.60765815	     25.60765815	     17.16778532	     -9.85586808	     -2.79715452	     -8.36259739	      4.40314764	      1.38219336	     -2.26785612	    -13.45672317	     -7.70533167	     33.44872992	     46.46297543	      0.00000000	      0.00000000	     12.12351583	    -13.33923886	    -15.46613634	     69.28498322	     47.42816892	      0.00000000	      0.00000000
     42.01328571	     -2.17895447	     -3.65610368	     -1.96142589	      1.08920764	      0.92895869	      0.45267690	     17.51217896	     -0.16338342	    -11.59426680	     19.57955041	     19.57955041	      6.34319620	     -0.39867896	     -5.19937081	      3.99523492	     -9.52165943	    -10.05037099	     28.88078430	     28.88078430	     15.87573301	    -11.46715967	     -4.23282350	     -8.41718958	      4.60903602	      1.59870051	     -1.42624613	    -13.72868513	     -7.14838683	     35.10885165	     46.33546343	      0.00000000	      0.00000000	     11.98135910	    -12.99156914	    -14.86014928	     66.87095638	     47.35189220	      0.00000000	      0.00000000
     42.02692857	     -2.08903722	     -3.86282960	     -1.65333412	      1.08901203	      0.92930552	      0.45583645	     16.88940888	      0.19412494	    -12.07462509	     19.38127402	     19.38127402	      6.74349885	     -0.13813409	     -5.36700134	      5.69074754	    -10.35996811	     -9.10304306	     32.61218326	     32.61218326	     14.79125139	    -12.67663023	     -4.79061992	     -8.54503622	      4.83190379	      1.50627333	      0.01243652	    -13.84542545	     -7.11877548	     36.00519964	     46.30365297	      0.00000000	      0.00000000	     11.24054834	    -12.72842151	    -14.55287689	     65.58887547	     47.30457236	      0.00000000	      0.00000000
